<?xml version="1.0" encoding="UTF-8" standalone="no"?>
<!-- Created with matplotlib (http://matplotlib.org/) -->

<svg
   xmlns:dc="http://purl.org/dc/elements/1.1/"
   xmlns:cc="http://creativecommons.org/ns#"
   xmlns:rdf="http://www.w3.org/1999/02/22-rdf-syntax-ns#"
   xmlns:svg="http://www.w3.org/2000/svg"
   xmlns="http://www.w3.org/2000/svg"
   xmlns:sodipodi="http://sodipodi.sourceforge.net/DTD/sodipodi-0.dtd"
   xmlns:inkscape="http://www.inkscape.org/namespaces/inkscape"
   height="432pt"
   version="1.1"
   viewBox="0 0 576 432"
   width="576pt"
   id="svg3544"
   inkscape:version="0.48.0 r9654"
   sodipodi:docname="abr.svg">
  <metadata
     id="metadata4063">
    <rdf:RDF>
      <cc:Work
         rdf:about="">
        <dc:format>image/svg+xml</dc:format>
        <dc:type
           rdf:resource="http://purl.org/dc/dcmitype/StillImage" />
      </cc:Work>
    </rdf:RDF>
  </metadata>
  <sodipodi:namedview
     pagecolor="#ffffff"
     bordercolor="#666666"
     borderopacity="1"
     objecttolerance="10"
     gridtolerance="10"
     guidetolerance="10"
     inkscape:pageopacity="0"
     inkscape:pageshadow="2"
     inkscape:window-width="1680"
     inkscape:window-height="1001"
     id="namedview4061"
     showgrid="false"
     inkscape:zoom="0.59359375"
     inkscape:cx="623.78881"
     inkscape:cy="34.239174"
     inkscape:window-x="0"
     inkscape:window-y="1"
     inkscape:window-maximized="1"
     inkscape:current-layer="svg3544" />
  <defs
     id="defs3546">
    <style
       type="text/css"
       id="style3548">
*{stroke-linecap:butt;stroke-linejoin:round;stroke-miterlimit:100000;}
  </style>
  </defs>
  <g
     id="line2d_1"
     style="stroke-linecap:butt;stroke-linejoin:round;stroke-miterlimit:4;stroke-width:6.56848167;stroke-dasharray:none"
     transform="matrix(1.1411442,0,0,0.32497464,-6.1192168,137.11289)">
    <path
       clip-path="url(#pd7f32576a8)"
       d="m 72,240.52177 1.1718,-0.1209 1.116,-0.33194 1.0602,-0.55256 1.116,-0.84492 1.3392,-1.3167 2.1762,-2.51721 2.6226,-2.94134 1.674,-1.54171 1.5066,-1.09518 1.5066,-0.81809 1.5066,-0.56567 1.6182,-0.36857 1.8414,-0.18063 2.1762,0.0238 2.4552,0.25053 1.953,0.41545 1.8414,0.621 1.8972,0.87832 2.1762,1.2626 2.8458,1.93004 8.7606,6.11691 2.9574,1.69977 2.79,1.35136 2.79,1.10434 2.8458,0.88655 3.0132,0.70211 3.2364,0.52241 3.627,0.35434 4.185,0.17937 5.1894,-0.009 7.4772,-0.256 29.2392,-1.18667 5.301,-0.23297 0.3348,-0.25383 0.279,-0.49037 0.3348,-1.13082 0.3906,-2.32651 0.6138,-5.52409 0.7812,-6.57183 0.558,-5.64892 0.558,-8.21407 0.7254,-14.46455 1.0044,-24.9631 3.348,-88.020973 0.9486,-17.494576 0.7812,-10.612154 0.6696,-6.365642 0.558,-3.485927 0.4464,-1.668771 0.3906,-0.718019 0.279,-0.09148 0.279,0.22033 0.3348,0.663711 0.4464,1.519188 0.558,2.801557 0.7812,5.327533 0.9486,8.212698 1.395,14.375081 3.1806,36.123024 2.3994,25.61978 4.743,48.707 1.5066,19.83572 2.1204,31.19115 3.906,57.64688 1.7856,22.97772 1.5624,17.3962 1.395,13.17167 1.2834,10.10869 1.1718,7.57596 1.116,5.80234 1.0044,4.10124 0.8928,2.80213 0.837,1.94843 0.7254,1.18712 0.6696,0.70418 0.6138,0.33182 0.558,0.0592 0.558,-0.16596 0.6138,-0.42557 0.6696,-0.73787 0.7812,-1.1977 0.9486,-1.90151 1.0602,-2.64474 1.2834,-3.84433 1.5066,-5.25875 1.8972,-7.51859 2.4552,-10.72633 10.3788,-46.56322 2.5668,-9.95042 2.3994,-8.42639 2.2878,-7.22369 2.1762,-6.1534 2.1762,-5.48652 2.1204,-4.74427 2.0646,-4.08685 2.0646,-3.5966 2.0088,-3.0632 2.0088,-2.66659 2.0088,-2.30462 2.0646,-2.02725 2.0088,-1.67393 2.1204,-1.48212 2.1762,-1.25072 2.232,-1.02944 2.3436,-0.83468 2.4552,-0.63284 2.5668,-0.42685 2.79,-0.2309 3.069,-0.0281 3.7386,0.19582 5.6916,0.55235 12.1086,1.19235 7.533,0.47836 10.7136,0.41927 32.5872,1.07126 82.5282,0.74638 0,0"
       style="fill:none;stroke:#0000ff;stroke-linecap:square;stroke-linejoin:round;stroke-miterlimit:4;stroke-width:6.56848167;stroke-dasharray:none"
       id="path3559"
       inkscape:connector-curvature="0" />
  </g>
  <defs
     id="defs4056">
    <clipPath
       id="pd7f32576a8">
      <rect
         height="345.6"
         width="446.4"
         x="72.0"
         y="43.2"
         id="rect4059" />
    </clipPath>
  </defs>
</svg>
